HIERARCHY
ROOT reference
{
	OFFSET 0.000000 0.000000 0.000000
	CHANNELS 6 Xposition Yposition Zposition Xrotation Yrotation Zrotation
	JOINT root
	{
		OFFSET 0.000000 89.855103 0.000000
		CHANNELS 3 Xrotation Yrotation Zrotation
		JOINT Hips
		{
			OFFSET 0.000000 0.000000 0.000000
			CHANNELS 3 Xrotation Yrotation Zrotation
			JOINT Spine
			{
				OFFSET 0.013597 -0.105484 -0.026469
				CHANNELS 3 Xrotation Yrotation Zrotation
				JOINT Spine1
				{
					OFFSET -5.027490 17.193398 4.853550
					CHANNELS 3 Xrotation Yrotation Zrotation
					JOINT Spine2
					{
						OFFSET -6.489560 17.043297 3.457120
						CHANNELS 3 Xrotation Yrotation Zrotation
						JOINT Neck
						{
							OFFSET -8.669390 15.586197 5.140731
							CHANNELS 3 Xrotation Yrotation Zrotation
							JOINT Head
							{
								OFFSET -6.523941 8.554855 4.152540
								CHANNELS 3 Xrotation Yrotation Zrotation
								End Site
								{
									OFFSET 0.000000 0.100006 0.000000
								}
							}
						}
						JOINT RightShoulder
						{
							OFFSET -11.633701 14.542206 3.299631
							CHANNELS 3 Xrotation Yrotation Zrotation
							JOINT RightArm
							{
								OFFSET -12.870399 -8.032135 -5.333369
								CHANNELS 3 Xrotation Yrotation Zrotation
								JOINT RightForearm
								{
									OFFSET -25.966301 -13.786201 -0.595327
									CHANNELS 3 Xrotation Yrotation Zrotation
									JOINT RightHand
									{
										OFFSET -20.889702 -1.520020 13.517002
										CHANNELS 3 Xrotation Yrotation Zrotation
										End Site
										{
											OFFSET 0.000000 0.099998 0.000000
										}
									}
								}
							}
						}
						JOINT LeftShoulder
						{
							OFFSET -5.713739 16.618195 6.992720
							CHANNELS 3 Xrotation Yrotation Zrotation
							JOINT LeftArm
							{
								OFFSET 14.245000 3.247330 6.718669
								CHANNELS 3 Xrotation Yrotation Zrotation
								JOINT LeftForearm
								{
									OFFSET 23.957703 -14.592697 -8.817472
									CHANNELS 3 Xrotation Yrotation Zrotation
									JOINT LeftHand
									{
										OFFSET 7.512091 -21.311096 10.526401
										CHANNELS 3 Xrotation Yrotation Zrotation
										End Site
										{
											OFFSET 0.000000 0.099998 0.000000
										}
									}
								}
							}
						}
					}
				}
			}
			JOINT RightUpLeg
			{
				OFFSET -8.373450 -0.383110 -4.593210
				CHANNELS 3 Xrotation Yrotation Zrotation
				JOINT RightLeg
				{
					OFFSET -19.959900 -39.045300 10.211302
					CHANNELS 3 Xrotation Yrotation Zrotation
					JOINT RightFoot
					{
						OFFSET -1.152691 -40.874802 -4.846910
						CHANNELS 3 Xrotation Yrotation Zrotation
						JOINT RightToe
						{
							OFFSET -13.504299 -6.853460 9.736731
							CHANNELS 3 Xrotation Yrotation Zrotation
							End Site
							{
								OFFSET 0.000000 0.100000 0.000000
							}
						}
					}
				}
			}
			JOINT LeftUpLeg
			{
				OFFSET 8.373450 0.383110 4.593200
				CHANNELS 3 Xrotation Yrotation Zrotation
				JOINT LeftLeg
				{
					OFFSET 13.255200 -42.685699 5.425019
					CHANNELS 3 Xrotation Yrotation Zrotation
					JOINT LeftFoot
					{
						OFFSET 12.326298 -37.689899 -11.095301
						CHANNELS 3 Xrotation Yrotation Zrotation
						JOINT LeftToe
						{
							OFFSET -0.239269 -7.519030 16.356800
							CHANNELS 3 Xrotation Yrotation Zrotation
							End Site
							{
								OFFSET 0.000000 0.100000 0.000000
							}
						}
					}
				}
			}
		}
	}
}
MOTION
Frames: 16
Frame Time: 0.041667
0.000000 0.000000 0.000000 -0.000000 0.000000 -0.000000 -0.000005 -0.000002 0.000000 -0.000001 0.000005 -0.000003 0.000001 0.000003 -0.000001 -0.000003 0.000001 0.000006 -0.000002 -0.000002 0.000003 -0.000001 0.000005 -0.000002 0.000004 -0.000006 -0.000002 -0.000004 0.000008 -0.000000 0.000011 0.000001 0.000005 -0.000001 -0.000006 0.000003 0.000008 0.000011 -0.000007 -0.000006 -0.000005 -0.000009 -0.000003 0.000000 0.000006 -0.000003 0.000009 -0.000004 -0.000001 -0.000003 0.000002 0.000003 -0.000002 -0.000009 -0.000002 -0.000008 -0.000002 -0.000007 0.000004 0.000000 -0.000003 -0.000005 -0.000002 0.000002 0.000007 -0.000010 -0.000003 -0.000002 -0.000001 -0.000001 0.000000 0.000001 0.000003 -0.000782 0.000000 
0.000000 0.000000 0.000000 -0.000000 0.000000 -0.000000 -0.000005 -0.000002 0.000000 -0.000001 0.000005 -0.000003 0.000001 0.000003 -0.000001 -0.000003 0.000001 0.000006 -0.000002 -0.000002 0.000003 -0.000001 0.000005 -0.000002 0.000004 -0.000006 -0.000002 -0.000004 0.000008 -0.000000 0.000011 0.000001 0.000005 -0.000001 -0.000006 0.000003 0.000008 0.000011 -0.000007 -0.000006 -0.000005 -0.000009 -0.000003 0.000000 0.000006 -0.000003 0.000009 -0.000004 -0.000001 -0.000003 0.000002 0.000003 -0.000002 -0.000009 -0.000002 -0.000008 -0.000002 -0.000007 0.000004 0.000000 -0.000003 -0.000005 -0.000002 0.000002 0.000007 -0.000010 -0.000003 -0.000002 -0.000001 -0.000001 0.000000 0.000001 0.000003 -0.000782 0.000000 
0.000000 0.000000 0.000000 -0.000000 0.000000 -0.000000 -0.133547 -0.322086 -0.088041 0.003579 0.002434 -0.006733 0.177804 0.029082 -0.276604 0.112255 0.048669 -0.138917 0.073517 0.042467 -0.092965 0.050768 0.033996 0.080722 0.047604 0.027480 0.187713 -0.040184 0.144604 -0.071006 0.619285 -0.699361 1.175813 -0.420032 0.825053 -0.559775 0.048448 0.090277 -1.332292 -0.001425 0.169494 -0.113341 -2.536222 0.522432 1.074411 -1.777929 -1.598436 -2.078008 -0.301939 0.861099 -0.775197 -0.105108 0.172878 -0.089348 0.209423 -0.036970 0.266075 0.113070 0.165144 -0.294248 -0.102060 -0.005480 0.213114 0.051344 0.218676 0.110437 0.467182 0.147476 0.017712 -0.742370 -0.332877 0.583344 0.015896 -0.000782 -0.022663 
0.000000 0.000000 0.000000 -0.000000 0.000000 -0.000000 -0.700676 -1.126188 -0.430968 0.059867 0.041318 -0.112538 0.622605 0.140336 -1.237958 0.408307 0.237887 -0.896224 0.266087 0.199584 -0.603342 0.379857 0.031485 0.797852 0.141149 -0.281946 1.614193 -0.605011 1.007151 0.458321 5.284517 -1.528523 3.569485 -0.818766 1.627025 -1.095657 4.899486 5.129694 -4.736485 -0.157115 0.745668 -0.225445 -8.851973 1.255059 4.536364 -6.425154 -5.256688 -7.434599 -0.987609 3.177911 -2.845488 0.085715 0.911317 0.399178 0.548790 -0.094740 0.697062 0.390230 0.302155 -1.760944 -0.766847 0.010297 0.859447 0.609511 1.208696 0.946312 0.787422 0.248661 0.029151 -1.839700 -0.936180 0.746463 0.142279 -0.007228 -0.202845 
0.000000 0.000000 0.000000 -0.000000 0.000000 -0.000000 -1.639698 -0.030916 -1.441860 0.685369 0.463034 -1.281992 1.296772 -0.443416 -2.717048 1.107144 -0.384700 -2.273786 0.798388 -0.153194 -1.539521 0.764674 -0.070933 2.359238 -0.296595 -0.996236 4.436351 -0.211339 1.082303 -0.793305 13.893591 1.943653 3.512982 0.061845 -0.119831 0.082045 38.339938 25.751224 -15.460227 -0.485792 1.121822 0.114339 -17.520639 1.650053 8.701755 -12.569648 -9.082692 -14.393241 -1.539886 6.010019 -5.158427 0.218519 -0.419929 2.860678 1.547863 -0.249601 1.964734 0.084866 0.279884 -3.620040 -0.986688 0.035839 0.773271 1.598171 0.574032 4.394473 -0.882814 -0.278240 -0.036734 -0.988943 -1.200715 -2.377760 -0.380848 -0.026573 -1.950430 
0.000000 0.000000 0.000000 -0.000000 0.000000 -0.000000 -2.523006 2.663630 -2.170656 1.983649 1.280770 -3.674739 2.162302 -1.346611 -4.787709 2.122774 -1.365279 -4.454859 1.584655 -0.707602 -3.026268 1.188000 -0.000363 4.539161 -0.983716 -1.530018 8.409815 1.216311 0.432078 -4.010351 15.088323 1.524766 -2.904244 -1.701480 3.470798 -2.298939 82.058787 14.633361 -41.196081 -0.204387 0.002776 0.371289 -27.979607 -0.649232 14.248324 -18.810766 -11.962519 -21.363346 -1.981787 9.258484 -7.500850 0.193365 -3.704999 7.214649 1.929843 -0.302846 2.448998 0.057311 0.115832 -4.823961 -0.487395 0.035117 0.137882 2.294581 -0.887457 9.417636 -5.304052 -1.660077 -0.284702 3.311812 -0.018442 -7.283867 -2.609309 -0.240354 1.528363 
0.000000 0.000000 0.000000 -0.000000 0.000000 -0.000000 -2.492682 3.970625 -2.239278 2.747254 1.727227 -5.062350 2.478562 -1.773423 -5.865925 2.456255 -1.793043 -5.611610 1.857927 -0.952720 -3.816176 1.349551 0.028551 5.595061 -1.370037 -1.762045 10.318427 2.336468 -0.176317 -6.318474 8.048662 -2.092572 -6.695466 -2.140451 4.424827 -2.906865 74.877376 6.570620 -42.866721 -0.078613 -0.372221 0.397850 -33.086717 -2.909405 16.851661 -21.689247 -12.987688 -24.554935 -1.951546 10.501079 -8.559320 -0.130473 -5.532939 9.528801 1.560560 -0.251419 1.980832 0.265610 -0.003202 -4.787319 0.050665 0.005014 -0.242959 1.582619 0.972548 10.937479 -9.126072 -2.833736 -0.583963 5.906118 0.832430 -6.237809 -2.087834 -0.229306 1.128479 
0.000000 0.000000 0.000000 -0.000000 0.000000 -0.000000 -1.275540 6.381496 -2.657457 4.020529 2.417576 -7.347456 2.760319 -2.958838 -7.676745 2.680853 -2.990124 -7.472657 2.134325 -1.713570 -5.093783 1.379026 0.007909 7.133205 -2.284648 -2.105895 12.954592 4.401343 -0.785142 -10.954169 -13.110918 -13.031034 -17.061609 -0.358632 0.703220 -0.477651 30.489575 -13.986590 -42.989880 -0.504219 1.147257 0.130326 -42.177023 -7.186284 20.159867 -27.538930 -14.534217 -31.009749 -2.234602 13.253836 -10.523361 -1.479304 -8.567829 12.896463 0.827178 -0.140163 1.050463 0.745455 -0.580596 -2.924470 1.103778 -0.035640 -1.761071 1.836516 5.503249 12.171132 -21.516679 -6.432472 -2.071813 11.904430 3.592935 -0.772080 0.001874 -0.151926 -1.685266 
0.000000 0.000000 0.000000 -0.000000 0.000000 -0.000000 0.341982 7.649758 -5.099825 4.302519 2.561684 -7.849053 3.145415 -3.315661 -9.075598 3.013416 -3.243723 -8.954297 2.401175 -1.832160 -6.103778 1.492937 -0.276244 8.418467 -2.894344 -2.921519 15.124110 6.452164 -4.089934 -12.425483 -22.836172 -21.775611 -25.486573 0.649425 -1.237577 0.856648 7.350055 -25.551067 -41.984698 -0.261415 1.058362 -0.251170 -49.336533 -9.816909 24.576339 -32.821798 -15.350874 -36.815464 -3.026889 16.302307 -12.102512 -3.060472 -9.984544 14.493709 1.266365 -0.208245 1.607724 0.836802 -1.495840 1.431692 2.074820 0.003830 -5.635827 -3.288385 0.328023 14.810741 -12.470627 -3.839837 -0.909041 6.078707 1.696481 1.114788 1.125388 -0.188739 -3.306937 
0.000000 0.000000 0.000000 -0.000000 0.000000 -0.000000 2.457862 6.577639 -11.289378 2.385387 1.518701 -4.406483 3.256686 -3.635825 -10.244538 3.245805 -4.184729 -10.461711 2.665149 -2.420965 -7.138253 1.487614 0.995821 9.045482 -3.203553 -0.753890 16.680374 8.889569 -8.728575 -13.392387 -25.567109 -26.656348 -21.339587 0.077267 -0.149649 0.102482 4.955755 -29.381039 -45.092482 0.477194 0.365367 -1.111993 -53.725168 -10.242475 32.233469 -34.286419 -15.483759 -38.422614 -3.004988 17.872278 -12.976320 -4.611409 -10.297947 14.078956 3.024502 -0.437241 3.835637 0.490090 -1.124822 4.783780 3.815372 -0.300304 -7.691591 -8.810261 -4.474798 15.656049 2.812845 0.890028 0.088410 -3.698873 -1.227317 5.542746 2.781294 -0.270686 -5.496850 
0.000000 0.000000 0.000000 -0.000000 0.000000 -0.000000 3.107716 4.854457 -14.796483 0.963843 0.644400 -1.798985 3.225862 -3.245440 -10.400969 3.202902 -3.981876 -10.725701 2.621566 -2.284169 -7.315451 1.288791 1.367238 8.800765 -3.387329 0.045258 16.277090 8.538056 -8.348065 -12.958303 -27.079168 -28.566580 -21.901181 0.141503 -0.273541 0.187555 2.809776 -30.539152 -43.316865 0.463346 0.350310 -1.076860 -54.348129 -9.181051 32.766340 -33.046733 -15.373934 -37.062276 -3.015621 17.508140 -12.422419 -5.049549 -9.609319 13.549967 3.766145 -0.513030 4.774300 0.887868 -0.593972 5.004964 3.722933 -0.260947 -7.722302 -10.479369 -5.525512 15.437317 9.888010 3.137892 0.117004 -8.609778 -2.340551 8.254983 3.061194 -0.267422 -4.370236 
0.000000 0.000000 0.000000 -0.000000 0.000000 -0.000000 1.826183 1.053194 -18.052354 -0.209712 -0.146246 0.395082 3.349288 -2.443540 -10.254823 3.310299 -3.025501 -10.631492 2.603185 -1.631793 -7.241955 1.026006 1.522848 8.583933 -3.719602 0.404212 15.793093 8.350683 -8.738272 -12.111121 -26.968927 -29.925364 -18.320297 0.030572 -0.059306 0.040579 2.382462 -31.988095 -43.114090 0.669715 0.244349 -1.375034 -53.796441 -6.759757 30.638688 -30.102560 -14.997226 -33.829080 -3.353390 17.217988 -11.745031 -6.016356 -8.015989 11.602214 5.668831 -0.651597 7.180160 3.669463 -0.387523 4.128107 1.181372 0.277013 -7.807126 -11.835273 -7.368752 14.353467 21.960656 6.906083 -0.471526 -16.583887 -3.387557 14.890217 3.757232 -0.361214 -5.366426 
0.000000 0.000000 0.000000 -0.000000 0.000000 -0.000000 -0.152122 -1.472688 -18.561657 -0.213362 -0.148809 0.401972 3.276364 -1.942614 -9.660990 3.221759 -2.352322 -10.006412 2.472052 -1.196856 -6.809989 0.951913 1.702998 8.138434 -3.554275 0.797653 15.057289 7.999867 -8.999925 -10.994652 -23.031652 -28.791102 -11.822117 -0.405796 0.796806 -0.540744 3.323359 -32.229914 -42.367667 0.860018 -0.401803 -1.279232 -48.691903 -4.148067 27.120859 -26.946508 -14.409013 -30.357558 -2.901476 15.280667 -10.872300 -6.440942 -5.098848 9.222845 6.483852 -0.686419 8.210038 6.075483 -1.631814 8.443558 -0.325979 0.766146 -10.891390 -11.576144 -8.165431 12.755984 28.171902 8.758275 -1.078514 -20.706403 -3.658836 20.655616 4.457149 -0.467996 -6.369495 
0.000000 0.000000 0.000000 -0.000000 0.000000 -0.000000 -0.599790 -3.207939 -17.798218 -0.216051 -0.150697 0.408270 2.874545 -1.601841 -8.825509 2.762297 -1.956129 -9.156265 2.114862 -0.985537 -6.228593 0.809780 1.809727 7.540762 -3.387989 1.107857 13.998661 8.064789 -9.537803 -10.589184 -21.787460 -26.886826 -5.827955 -0.959558 1.914668 -1.285958 6.445839 -29.569795 -37.920022 1.125267 -1.120553 -1.271410 -42.190464 -2.299022 23.176345 -23.596849 -13.569086 -26.663930 -2.498273 13.396435 -9.816722 -6.712540 -0.703299 6.271580 5.468912 -0.640803 6.927483 8.164904 -2.584314 19.165451 1.042864 0.498782 -15.416900 -11.337368 -6.421094 10.574509 28.372500 8.816708 -1.101442 -21.825395 -4.304374 23.836271 5.138335 -0.583996 -7.347093 
0.000000 0.000000 0.000000 -0.000000 0.000000 -0.000000 -0.577303 -3.871660 -16.966589 -0.218562 -0.152462 0.411181 2.646725 -1.404465 -8.340149 2.506677 -1.724169 -8.669768 1.915483 -0.859791 -5.896103 0.654342 1.852007 7.167241 -3.385421 1.296228 13.290143 7.868719 -9.414995 -10.240755 -20.404446 -25.345652 -3.846515 -1.049752 2.100198 -1.408205 8.581584 -26.895326 -35.075234 1.215345 -1.495495 -1.182548 -38.982318 -1.649880 21.399801 -21.930199 -13.065368 -24.821590 -2.306795 12.413146 -9.242916 -6.570467 1.694149 4.804431 5.080626 -0.617329 6.436676 6.231716 -3.087927 21.438161 7.355965 -1.801820 -10.940582 -11.101506 -4.754500 9.444002 26.924660 8.392884 -0.940588 -21.580734 -4.819297 24.458194 5.465016 -0.643877 -7.816452 
0.000000 0.000000 0.000000 -0.000000 0.000000 -0.000000 -0.323346 -4.689741 -14.802482 -0.221037 -0.154205 0.416461 2.229380 -1.048729 -7.211554 2.078734 -1.302716 -7.525810 1.576080 -0.630216 -5.115655 0.352383 1.784745 6.277671 -3.275935 1.457471 11.581384 7.320541 -8.949961 -9.382501 -16.715575 -20.856003 -1.094798 -1.101789 2.207714 -1.478839 12.624467 -19.352830 -28.297733 1.257811 -1.942509 -0.961938 -33.114748 -0.232960 18.482444 -18.478266 -11.832231 -20.993990 -2.128165 10.642227 -7.952688 -7.028525 2.521137 1.786828 7.121363 -0.703426 9.015430 4.037831 -1.668940 17.652731 -0.331616 -0.007057 0.511082 -9.567711 -0.807038 7.177019 21.307547 6.706980 -0.419466 -19.697716 -5.649734 24.557809 6.077570 -0.763642 -8.697587 
